# xmcd CD database file
#
# Track frame offsets:
#	150
#	19050
#	37725
#	59550
#	76350
#	94050
#	113400
#	135900
#	154350
#	170025
#	191175
#	208425
#
# Disc length: 3046 seconds
#
# Revision: 4
# Processed by: cddbd v1.5.1PL2 Copyright (c) Steve Scherf et al.
# Submitted via: CDex 1.51
#
DISCID=a10be40c
DTITLE=蔡琴 - 火舞
DYEAR=1988
DGENRE=Pop
TTITLE0=火舞
TTITLE1=金色樓梯
TTITLE2=傷心小站
TTITLE3=由麻菜籽
TTITLE4=情鎖
TTITLE5=蝶衣
TTITLE6=最後一夜
TTITLE7=讀你
TTITLE8=天天天天
TTITLE9=我和我自己的影子
TTITLE10=情願孤獨
TTITLE11=時間的河
EXTD=滄詠釭え YEAR: 1988
EXTT0=
EXTT1=
EXTT2=
EXTT3=
EXTT4=
EXTT5=
EXTT6=
EXTT7=
EXTT8=
EXTT9=
EXTT10=
EXTT11=
PLAYORDER=
